<svg xmlns="http://www.w3.org/2000/svg" width="76.62" height="34.622" viewBox="0 0 76.62 34.622">
  <defs>
    <style>
      .cls-1 {
        fill: #fff;
        fill-rule: evenodd;
      }
    </style>
  </defs>
  <path id="funeral5.svg" class="cls-1" d="M1271.87,1004.8l-9.88-1.2-6.03-10.825h-9.24a4.782,4.782,0,0,0-4.63-3.579h-35.2l-4.3,4.279v10.385l-2.39,5.37v12.18h7.19a5.965,5.965,0,0,0,9.55,0h40.72a5.965,5.965,0,0,0,9.55,0h9.59v-7.16C1276.8,1009.78,1276.8,1005.56,1271.87,1004.8Zm2.54,11.84v2.39h-6.11a5.985,5.985,0,1,0-11.73,0h-38.54a5.983,5.983,0,1,0-11.85-1.2,6.78,6.78,0,0,0,.12,1.2h-3.71v-8.36h4.79v-2.38h-4.14l1.06-2.39h40.18v10.74h2.4V1005.9h14.29l10.37,1.27a2.664,2.664,0,0,1,2.55,2.31h-4.47v2.39h4.74c0.03,0.69.05,1.48,0.05,2.38h-1.2v2.39h1.2Zm-11.97,4.77a3.588,3.588,0,0,1-2.67-1.19,3.692,3.692,0,0,1-.71-1.19,3.443,3.443,0,0,1-.21-1.2,3.59,3.59,0,0,1,7.18,0,3.59,3.59,0,0,1-.92,2.39A3.588,3.588,0,0,1,1262.44,1021.41Zm-50.27,0a3.588,3.588,0,0,1-2.67-1.19,3.692,3.692,0,0,1-.71-1.19,3.443,3.443,0,0,1-.21-1.2,3.59,3.59,0,0,1,7.18,0,3.59,3.59,0,0,1-.92,2.39A3.588,3.588,0,0,1,1212.17,1021.41Zm-7.18-26.947,2.89-2.881h34.21a2.389,2.389,0,0,1,2.39,2.386v9.542h-2.39v-8.348h-2.39v8.348h-29.93v-8.348h-2.39v8.348h-2.39v-9.047Zm41.89,9.047v-8.348h7.67l4.66,8.348h-12.33Zm-15.56-4.769h-11.97v-2.386h11.97v2.386Zm0,11.929h2.39v2.39h-2.39v-2.39Zm-4.79,0h2.39v2.39h-2.39v-2.39Zm9.58,0h2.39v2.39h-2.39v-2.39Z" transform="translate(-1200.19 -989.188)"/>
</svg>

