<svg xmlns="http://www.w3.org/2000/svg" width="69" height="69" viewBox="0 0 69 69">
  <defs>
    <style>
      .cls-1 {
        fill: #47816f;
        fill-rule: evenodd;
      }
    </style>
  </defs>
  <path id="icon10.svg" class="cls-1" d="M323.124,556.51l-4.764.972-0.433,1.613,0.591-.076a4.156,4.156,0,0,1,4.64,3.581l0.046,0.356a4.148,4.148,0,0,1-3.587,4.634l-1.752.224a4.165,4.165,0,0,1,.666.674,4.043,4.043,0,0,1,.806,3.011l-0.047.35a4.085,4.085,0,0,1-4.042,3.536,4.146,4.146,0,0,1-.542-0.036l-0.335-.045a3.843,3.843,0,0,1,.463,3.938l-0.137.309a3.915,3.915,0,0,1-2.185,2.077,4,4,0,0,1-.685.195l-2.817,10.5a4.032,4.032,0,0,1-3.884,2.982,4.055,4.055,0,0,1-1.05-.138l-15.866-4.244a23.626,23.626,0,0,1-8.483,1.024,19.826,19.826,0,0,0-6.845.736l0.437,1.1c0.008,0.021.016,0.042,0.022,0.063a2.162,2.162,0,0,1-1.3,2.685L268.14,598l-0.683-1.8,3.9-1.478a0.244,0.244,0,0,0,.153-0.281l-9.933-24.93c-0.009-.02-0.016-0.042-0.023-0.063a0.24,0.24,0,0,0-.127-0.145,0.233,0.233,0,0,0-.192-0.006l-2.467,1.076L258,568.612l2.5-1.09a2.189,2.189,0,0,1,1.757.046,2.156,2.156,0,0,1,.805.677,34.744,34.744,0,0,0,1.361-6.3l1.907,0.274c-0.621,4.312-1.322,6.916-2.247,8.378l8.086,20.294a21.362,21.362,0,0,1,7.569-.868,37.685,37.685,0,0,0,4.512-.16L274.2,587.169a4.027,4.027,0,0,1-2.849-4.927l5.379-20.043,1.861,0.5-4.477,16.68,33.943,9.08,1.818-6.776a3.871,3.871,0,0,1-.374-0.12l-1.748-.771a3.941,3.941,0,0,1-2.014-5.193l0.136-.309a3.886,3.886,0,0,1,1.721-1.844,4.045,4.045,0,0,1-1.068-3.294l0.047-.351a4.054,4.054,0,0,1,4.34-3.507,4.083,4.083,0,0,1-.624-1.683l-0.046-.357a4.146,4.146,0,0,1,3.586-4.633l2.035-.26,3.874-14.434L294.4,538.147l0.5-1.858,25.332,6.777,0.4-1.5a2.1,2.1,0,0,0-1.487-2.57L289.27,531a2.1,2.1,0,0,0-2.575,1.483l-1.095,4.084-1.861-.5,1.1-4.083a4.03,4.03,0,0,1,4.934-2.844l29.881,7.993a4.027,4.027,0,0,1,2.849,4.927l-1.336,4.979A4.836,4.836,0,1,1,323.124,556.51ZM273.61,581.235l-0.4,1.5a2.1,2.1,0,0,0,1.486,2.57l29.882,7.994a2.1,2.1,0,0,0,2.574-1.484l0.4-1.5Zm34.023-5.17-0.136.309a2.014,2.014,0,0,0,1.03,2.656l1.747,0.771a2.027,2.027,0,0,0,2.661-1.028l0.136-.309a2.021,2.021,0,0,0-1.029-2.656l-1.75-.772a1.993,1.993,0,0,0-.807-0.171,2.038,2.038,0,0,0-.734.139A2,2,0,0,0,307.633,576.065Zm3.266-7.858a2.114,2.114,0,0,0-.286-0.019,2.163,2.163,0,0,0-2.133,1.865l-0.047.351a2.159,2.159,0,0,0,1.85,2.414l4.678,0.623a2.15,2.15,0,0,0,2.419-1.846l0.047-.35a2.152,2.152,0,0,0-1.85-2.415Zm3.172-6.679a2.218,2.218,0,0,0-1.92,2.479l0.046,0.357a2.219,2.219,0,0,0,2.484,1.918l4.691-.6a2.221,2.221,0,0,0,1.921-2.48l-0.047-.357a2.221,2.221,0,0,0-2.2-1.935,2.068,2.068,0,0,0-.283.018Zm9.872-12.065a2.915,2.915,0,0,0-2.427-.541l-0.914.2-1.685,6.278,3.822-.779A2.915,2.915,0,0,0,323.943,549.463Zm-40.92,17.17,3.49,0.934-0.5,1.858-3.491-.934Zm-2.426,7.629,0.5-1.858,16.9,4.522-0.5,1.858Zm9.96-3.622,0.5-1.858,8.44,2.257L299,572.9Zm22.314-21-0.5,1.858-6.963-1.863,0.5-1.858Zm-17.529,3.589,0.5-1.859,15.1,4.041-0.5,1.858Zm-3.13-8.8v10.624a4,4,0,0,1-3.324,3.93L287,563.576a0.961,0.961,0,0,1-.71.58,0.924,0.924,0,0,1-.181.017,0.965,0.965,0,0,1-.693-0.293l-4.675-4.837H266.66a3.993,3.993,0,0,1-3.992-3.985V544.434a3.994,3.994,0,0,1,3.992-3.986h21.559A3.994,3.994,0,0,1,292.212,544.434Zm-27.618,0v10.624a2.066,2.066,0,0,0,2.066,2.062h14.491a0.961,0.961,0,0,1,.693.294l3.935,4.07,1.549-3.767a0.963,0.963,0,0,1,.891-0.6,2.066,2.066,0,0,0,2.066-2.062V544.434a2.066,2.066,0,0,0-2.066-2.062H266.66A2.066,2.066,0,0,0,264.594,544.434Zm19.268,6.274a1.283,1.283,0,1,1,1.285-1.283A1.283,1.283,0,0,1,283.862,550.708Zm-6.422,0a1.283,1.283,0,1,1,1.284-1.283A1.284,1.284,0,0,1,277.44,550.708Zm-6.423,0a1.283,1.283,0,1,1,1.284-1.283A1.284,1.284,0,0,1,271.017,550.708Z" transform="translate(-258 -529)"/>
</svg>

