<svg xmlns="http://www.w3.org/2000/svg" width="53.124" height="43.184" viewBox="0 0 53.124 43.184">
  <defs>
    <style>
      .cls-1 {
        fill: #fff;
        fill-rule: evenodd;
      }
    </style>
  </defs>
  <path id="funeral3.svg" class="cls-1" d="M852.566,1002.5h-0.83V992.439a1.312,1.312,0,0,0,.83-1.219v-2.354a1.313,1.313,0,0,0-.83-1.219v-2.863l-2.9-3.876H808.168l-2.9,3.876v2.863a1.313,1.313,0,0,0-.83,1.219v2.354a1.312,1.312,0,0,0,.83,1.219V1002.5h-0.83a2.5,2.5,0,0,0-2.49,2.49v4.98h1.66v-4.98a0.829,0.829,0,0,1,.83-0.83h48.132a0.829,0.829,0,0,1,.83.83v4.98h1.66v-4.98A2.5,2.5,0,0,0,852.566,1002.5Zm-45.643,0v-2.49h43.154v2.49H806.923Zm0-16.609h7.469V984.23h-6.639L809,982.569h39l1.245,1.661h-6.639v1.661h7.469v1.661H806.923v-1.661Zm-0.83,3.321h44.814v1.662H806.093v-1.662Zm0.83,3.322h43.154v5.814H806.923v-5.814Zm24.067-8.3h1.659v1.661H830.99V984.23Zm-6.639,0h1.659v1.661h-1.659V984.23Zm3.319,0h1.66v1.661h-1.66V984.23Zm-4.149,34.05h1.659v5.81h-1.659v-5.81Zm8.3,0h1.659v5.81H831.82v-5.81Zm-23.237,0h1.66v5.81h-1.66v-5.81Zm8.3,0h1.66v5.81h-1.66v-5.81Zm31.049-4.78c-0.274-.11-0.559-0.23-0.85-0.35l-0.8-.34a4.329,4.329,0,0,0,.872-2.63,4.541,4.541,0,0,0-.126-1.04,3.635,3.635,0,0,0-7.176,0,4.486,4.486,0,0,0-.126,1.04,4.335,4.335,0,0,0,.818,2.56l-1.01.42a9.119,9.119,0,0,0-3.536,2.06,7.978,7.978,0,0,0-3-1.72c-0.275-.11-0.559-0.23-0.851-0.35l-0.8-.34a4.322,4.322,0,0,0,.872-2.63,4.541,4.541,0,0,0-.126-1.04,3.635,3.635,0,0,0-7.176,0,4.541,4.541,0,0,0-.126,1.04,4.335,4.335,0,0,0,.818,2.56l-1.009.42a9.1,9.1,0,0,0-3.536,2.06,7.99,7.99,0,0,0-3-1.72c-0.275-.11-0.559-0.23-0.85-0.35l-0.8-.34a4.328,4.328,0,0,0,.871-2.63,4.486,4.486,0,0,0-.126-1.04,3.635,3.635,0,0,0-7.176,0,4.541,4.541,0,0,0-.126,1.04,4.342,4.342,0,0,0,.818,2.56l-1.009.42c-2.282.94-4.253,1.75-4.393,4.31,0,0.17,0,3.56,0,5.79v0.83h1.659v-0.83h0c0-4.57,0-5.56,0-5.79,0.086-1.37,1.04-1.82,3.4-2.79l1.774-.74a3.458,3.458,0,0,0,1.466.33,3.286,3.286,0,0,0,1.359-.29l1.638,0.7c0.3,0.13.593,0.24,0.876,0.36,2.049,0.83,2.766,1.22,2.766,2.41v5.81h0v0.83h1.661v-0.83h0c0-4.57,0-5.56,0-5.79,0.086-1.37,1.04-1.82,3.4-2.79l1.774-.74a3.463,3.463,0,0,0,1.467.33,3.286,3.286,0,0,0,1.359-.29l1.637,0.7c0.3,0.13.594,0.24,0.877,0.36,2.049,0.83,2.766,1.22,2.766,2.41v5.81h0v0.83H836.8v-0.83h0c0-4.57,0-5.56,0-5.79,0.086-1.37,1.04-1.82,3.4-2.79l1.774-.74a3.463,3.463,0,0,0,1.467.33,3.289,3.289,0,0,0,1.359-.29l1.637,0.7c0.3,0.13.594,0.24,0.877,0.36,2.049,0.83,2.766,1.22,2.766,2.41v6.64h1.659v-6.64C851.736,1015.03,849.888,1014.29,847.931,1013.5Zm-4.847-.93a1.933,1.933,0,0,1-.94-0.5,2.632,2.632,0,0,1-.761-1.89,2.811,2.811,0,0,1,.2-1.04,1.932,1.932,0,0,1,3.709,0,2.811,2.811,0,0,1,.2,1.04,2.573,2.573,0,0,1-.826,1.94,1.881,1.881,0,0,1-1.013.48,1.541,1.541,0,0,1-.215.01A1.393,1.393,0,0,1,843.084,1012.57Zm-14.938,0a1.933,1.933,0,0,1-.94-0.5,2.631,2.631,0,0,1-.76-1.89,2.811,2.811,0,0,1,.2-1.04,1.931,1.931,0,0,1,3.708,0,2.811,2.811,0,0,1,.2,1.04,2.569,2.569,0,0,1-.826,1.94,1.881,1.881,0,0,1-1.012.48,1.548,1.548,0,0,1-.216.01A1.393,1.393,0,0,1,828.146,1012.57Zm-14.937,0a1.932,1.932,0,0,1-.941-0.5,2.635,2.635,0,0,1-.76-1.89,2.811,2.811,0,0,1,.2-1.04,1.932,1.932,0,0,1,3.709,0,2.811,2.811,0,0,1,.2,1.04,2.57,2.57,0,0,1-.827,1.94,1.878,1.878,0,0,1-1.012.48,1.548,1.548,0,0,1-.216.01A1.386,1.386,0,0,1,813.209,1012.57Zm25.249,5.71h1.66v5.81h-1.66v-5.81Zm8.3,0h1.66v5.81h-1.66v-5.81Z" transform="translate(-801.938 -980.906)"/>
</svg>

