<svg xmlns="http://www.w3.org/2000/svg" width="38.44" height="33.38" viewBox="0 0 38.44 33.38">
  <defs>
    <style>
      .cls-1 {
        fill: #fff;
        fill-rule: evenodd;
      }
    </style>
  </defs>
  <path id="funeral.svg" class="cls-1" d="M1260.28,1125.64a10.768,10.768,0,0,1-15.19.11,0.742,0.742,0,0,0-1.05.01,0.752,0.752,0,0,0,.01,1.05,12.229,12.229,0,0,0,17.28-.13,0.742,0.742,0,0,0,0-1.05,0.752,0.752,0,0,0-1.05.01h0Zm-12.98-16.98a10.791,10.791,0,0,1,11.02.21,0.67,0.67,0,0,0,.38.11,0.738,0.738,0,0,0,.4-1.36,12.257,12.257,0,0,0-12.53-.25,0.741,0.741,0,0,0,.73,1.29h0Zm-7.25,6.46a0.731,0.731,0,0,0-.49.83c0.88,5.08.93,14.16,0.93,15.92a1.83,1.83,0,0,1-3.66,0c0-1.76.05-10.84,0.93-15.92a0.731,0.731,0,0,0-.49-0.83,4.378,4.378,0,0,1-3-4.17c0-2.74,2.21-7.66,4.39-7.66s4.39,4.92,4.39,7.66a4.378,4.378,0,0,1-3,4.17h0Zm4.48-4.17c0-3.13-2.48-9.14-5.87-9.14s-5.87,6.01-5.87,9.14a5.866,5.866,0,0,0,3.42,5.34,124.48,124.48,0,0,0-.85,15.58,3.3,3.3,0,1,0,6.6,0,124.48,124.48,0,0,0-.85-15.58,5.866,5.866,0,0,0,3.42-5.34h0Zm23.67,20.92a1.83,1.83,0,0,1-3.66,0c0-.94.62-10.96,1.48-16.22h0.69c0.87,5.26,1.49,15.28,1.49,16.22h0Zm2.27-30.06a0.745,0.745,0,0,0-.74.74v9.86a1.622,1.622,0,0,1-1.42,1.76h-1.2v-11.62a0.74,0.74,0,1,0-1.48,0v11.62h-1.2a1.615,1.615,0,0,1-1.42-1.76v-9.86a0.74,0.74,0,1,0-1.48,0v9.86a3.085,3.085,0,0,0,2.9,3.24h0.1c-0.88,5.49-1.46,15.25-1.46,16.22a3.3,3.3,0,1,0,6.6,0c0-.97-0.58-10.73-1.46-16.22h0.1a3.085,3.085,0,0,0,2.9-3.24v-9.86a0.745,0.745,0,0,0-.74-0.74h0Z" transform="translate(-1232.78 -1101.81)"/>
</svg>

