<svg xmlns="http://www.w3.org/2000/svg" width="35" height="35" viewBox="0 0 35 35">
  <defs>
    <style>
      .cls-1 {
        fill: #fff;
        fill-rule: evenodd;
      }
    </style>
  </defs>
  <path id="funera4l.svg" class="cls-1" d="M846,1111.2a2.046,2.046,0,0,0-1.645-2.08c0-.04,0-0.07,0-0.1a2.321,2.321,0,0,0-2.188-2.43,1.936,1.936,0,0,0-.636.11,2.234,2.234,0,0,0-2.1-1.75,2.017,2.017,0,0,0-1.235.43,2.489,2.489,0,0,0-2.32-1.83,2.342,2.342,0,0,0-1.789.86,2.679,2.679,0,0,0-2.313-1.41,2.885,2.885,0,0,0-2.734,3.01,3.122,3.122,0,0,0,1,2.32,4.614,4.614,0,0,0-.98,3.17,19.384,19.384,0,0,0,.3,3.01l-0.322.26v9.56h2.376a20.594,20.594,0,0,1-.384,5.82,13.721,13.721,0,0,0-.351,2.65,5.2,5.2,0,0,0,10.39.01c0.011-.35.634-2.48,1.236-4.54,1.306-4.48,3.1-10.6,3.1-12.97a8.737,8.737,0,0,0-.312-2.31A2.154,2.154,0,0,0,846,1111.2Zm-1.3.66a0.819,0.819,0,0,1-.449.34,0.941,0.941,0,0,1-.169.02,0.729,0.729,0,0,1-.54-0.26,1.045,1.045,0,0,1-.237-0.45,1.149,1.149,0,0,1-.043-0.31c0-.03,0-0.06.008-0.1a1.976,1.976,0,0,0,.292-0.22,2.471,2.471,0,0,0,.365-0.43,2.224,2.224,0,0,0,.154-0.26h0a0.929,0.929,0,0,1,.82,1.01A1.12,1.12,0,0,1,844.7,1111.86Zm-3.44,16.1a36.862,36.862,0,0,0-1.28,4.84,4.1,4.1,0,1,1-8.2,0,12.838,12.838,0,0,1,.327-2.42,21.73,21.73,0,0,0,.411-6.05H836.7v-9.56l-1.723-1.38h-2.105v-4.63a2.809,2.809,0,0,0,.966-0.78c0.037,0,.074-0.01.111-0.01a2.369,2.369,0,0,0,1.931,1.05,2.32,2.32,0,0,0,1.569-.63,2.19,2.19,0,0,0,1.986,1.41,1.93,1.93,0,0,0,.635-0.11,2.236,2.236,0,0,0,2.1,1.75h0.012a2,2,0,0,0,1.868,1.87,7.661,7.661,0,0,1,.264,1.99C844.316,1117.51,842.479,1123.8,841.264,1127.96Zm-11.123-4.73v-7.94l0.419-.33,0.593-.48H834.6l1.013,0.81v7.94h-5.469Zm0.021-11.73a3.474,3.474,0,0,1,.8-2.56,0.274,0.274,0,0,0,.055-0.05,2.415,2.415,0,0,0,.76.13v4.37h-1.012l-0.413.33A16.132,16.132,0,0,1,830.162,1111.5Zm1.619-7.41a1.8,1.8,0,0,1,1.641,1.92,2.1,2.1,0,0,1-.211.93,1.907,1.907,0,0,1-.483.63,1.391,1.391,0,0,1-1.159.33,1.449,1.449,0,0,1-.659-0.27,2.008,2.008,0,0,1-.769-1.62A1.8,1.8,0,0,1,831.781,1104.09Zm4.1,0.55a1.527,1.527,0,0,1,1.367,1.64,1.94,1.94,0,0,1-.08.55,1.652,1.652,0,0,1-.271.54,1.268,1.268,0,0,1-.982.55h-0.065a1.284,1.284,0,0,1-.979-0.54,1.6,1.6,0,0,1-.273-0.54,1.889,1.889,0,0,1-.084-0.56A1.527,1.527,0,0,1,835.883,1104.64Zm6.289,3.05a1.227,1.227,0,0,1,1.094,1.33,1.608,1.608,0,0,1-.031.3,1.5,1.5,0,0,1-.048.18,1.419,1.419,0,0,1-.285.5,1.042,1.042,0,0,1-.466.3,0.274,0.274,0,0,1-.087.02,1.031,1.031,0,0,1-.177.02,1.205,1.205,0,0,1-1.086-1.23c0-.03-0.008-0.06-0.008-0.09s0-.04,0-0.05a2.3,2.3,0,0,0,.236-0.36,2.4,2.4,0,0,0,.209-0.52c0.017-.06.03-0.12,0.043-0.18A0.949,0.949,0,0,1,842.172,1107.69Zm-1.645-.27c0,0.04-.006.08-0.01,0.12a1.411,1.411,0,0,1-.153.53,1.137,1.137,0,0,1-.324.41l-0.04.03a0.949,0.949,0,0,1-.562.19,1.063,1.063,0,0,1-.941-0.66,1.512,1.512,0,0,1-.146-0.58c0-.03-0.007-0.06-0.007-0.09a1.493,1.493,0,0,1,.071-0.45,1.122,1.122,0,0,1,1.023-.87,1.223,1.223,0,0,1,1.093,1.32A0.458,0.458,0,0,1,840.527,1107.42ZM825.219,1103a2.679,2.679,0,0,0-2.313,1.41,2.342,2.342,0,0,0-1.789-.86,2.489,2.489,0,0,0-2.32,1.83,2.017,2.017,0,0,0-1.235-.43,2.234,2.234,0,0,0-2.1,1.75,1.936,1.936,0,0,0-.636-0.11,2.321,2.321,0,0,0-2.187,2.43c0,0.03,0,.06,0,0.1A2.046,2.046,0,0,0,811,1111.2a2.154,2.154,0,0,0,.9,1.79,8.737,8.737,0,0,0-.312,2.31c0,2.37,1.79,8.49,3.1,12.97,0.6,2.06,1.224,4.19,1.235,4.53a5.2,5.2,0,1,0,10.39,0,13.721,13.721,0,0,0-.351-2.65,21.566,21.566,0,0,1,.5-10.62,32.643,32.643,0,0,0,1.472-8.03,4.614,4.614,0,0,0-.98-3.17,3.122,3.122,0,0,0,1-2.32A2.885,2.885,0,0,0,825.219,1103Zm0.815,5.94a3.474,3.474,0,0,1,.8,2.56,32.008,32.008,0,0,1-1.426,7.71,22.681,22.681,0,0,0-.52,11.17,12.838,12.838,0,0,1,.327,2.42,4.1,4.1,0,1,1-8.2,0,36.862,36.862,0,0,0-1.28-4.84c-1.215-4.16-3.052-10.45-3.052-12.66a7.661,7.661,0,0,1,.264-1.99,2,2,0,0,0,1.868-1.87h0.012a2.236,2.236,0,0,0,2.1-1.75,1.93,1.93,0,0,0,.635.11,2.19,2.19,0,0,0,1.986-1.41,2.32,2.32,0,0,0,1.569.63,2.369,2.369,0,0,0,1.931-1.05c0.037,0,.074.01,0.111,0.01a2.645,2.645,0,0,0,2.06,1.04,2.415,2.415,0,0,0,.76-0.13A0.274,0.274,0,0,0,826.034,1108.94Zm-13.94,2.26a0.929,0.929,0,0,1,.82-1.01h0a2.224,2.224,0,0,0,.154.26,2.471,2.471,0,0,0,.365.43,1.976,1.976,0,0,0,.292.22c0,0.04.008,0.07,0.008,0.1a1.149,1.149,0,0,1-.043.31,1.045,1.045,0,0,1-.237.45,0.729,0.729,0,0,1-.54.26,0.941,0.941,0,0,1-.169-0.02,0.819,0.819,0,0,1-.449-0.34A1.12,1.12,0,0,1,812.094,1111.2Zm2.734-3.51a0.949,0.949,0,0,1,.6.22c0.013,0.06.026,0.12,0.043,0.18a2.4,2.4,0,0,0,.209.52,2.3,2.3,0,0,0,.236.36c0,0.01,0,.03,0,0.05s-0.006.06-.008,0.09a1.2,1.2,0,0,1-1.086,1.23,1.031,1.031,0,0,1-.177-0.02,0.274,0.274,0,0,1-.087-0.02,1.042,1.042,0,0,1-.466-0.3,1.419,1.419,0,0,1-.285-0.5,1.5,1.5,0,0,1-.048-0.18,1.7,1.7,0,0,1-.031-0.3A1.227,1.227,0,0,1,814.828,1107.69Zm2.734-1.64a1.122,1.122,0,0,1,1.023.87,1.493,1.493,0,0,1,.071.45c0,0.03,0,.06-0.007.09a1.494,1.494,0,0,1-.146.58,1.063,1.063,0,0,1-.941.66,0.949,0.949,0,0,1-.562-0.19l-0.04-.03a1.137,1.137,0,0,1-.324-0.41,1.411,1.411,0,0,1-.153-0.53c0-.04-0.009-0.08-0.01-0.12a0.458,0.458,0,0,1,0-.05A1.223,1.223,0,0,1,817.562,1106.05Zm3.555-1.41a1.527,1.527,0,0,1,1.367,1.64,1.974,1.974,0,0,1-.085.57,1.621,1.621,0,0,1-.272.53,1.284,1.284,0,0,1-.979.54h-0.065a1.268,1.268,0,0,1-.982-0.55,1.652,1.652,0,0,1-.271-0.54,1.94,1.94,0,0,1-.08-0.55A1.527,1.527,0,0,1,821.117,1104.64Zm4.1-.55a1.8,1.8,0,0,1,1.641,1.92,2.006,2.006,0,0,1-.77,1.62,1.449,1.449,0,0,1-.659.27,1.391,1.391,0,0,1-1.159-.33,1.92,1.92,0,0,1-.483-0.63,2.1,2.1,0,0,1-.211-0.93A1.8,1.8,0,0,1,825.219,1104.09Zm6.113,14.22h-0.1v-1.09h1.094v1.09h-1Zm0.036,2.19h-0.134v-1.09h1.094v1.09h-0.96Zm0.96,2.19h-1.094v-1.1h1.094v1.1Zm2.188-.55h-1.094v-6.01h1.094v6.01ZM823.446,1110l0.238,1.07-0.534.12c-0.048.01-4.832,1.09-7.433,3.17l-0.427.35-0.683-.86,0.426-.34c2.8-2.24,7.674-3.34,7.88-3.39Zm18.521,3.51,0.427,0.34-0.683.86-0.428-.35a20.462,20.462,0,0,0-6.646-2.97l-0.527-.14,0.286-1.06,0.528,0.14A21.01,21.01,0,0,1,841.967,1113.51Z" transform="translate(-811 -1103)"/>
</svg>

