<svg xmlns="http://www.w3.org/2000/svg" xmlns:xlink="http://www.w3.org/1999/xlink" preserveAspectRatio="xMidYMid" width="71" height="70" viewBox="0 0 71 70">
  <defs>
    <style>
      .cls-1 {
        fill: #fff;
        fill-rule: evenodd;
      }
    </style>
  </defs>
  <path d="M61.731,27.455 L61.597,31.785 L67.179,41.193 C67.208,41.242 67.222,41.296 67.239,41.349 C67.248,41.375 67.263,41.398 67.269,41.426 C67.289,41.520 67.291,41.615 67.277,41.709 C67.276,41.715 67.278,41.719 67.277,41.725 C67.273,41.751 67.258,41.773 67.250,41.798 C67.235,41.854 67.219,41.909 67.191,41.961 C67.172,41.997 67.146,42.026 67.122,42.058 C67.100,42.088 67.085,42.121 67.058,42.147 L61.359,47.831 C61.205,47.984 61.004,48.061 60.804,48.061 C60.602,48.061 60.401,47.984 60.247,47.831 L54.548,42.147 C54.523,42.123 54.510,42.091 54.489,42.064 C54.467,42.036 54.446,42.010 54.428,41.979 C54.391,41.915 54.367,41.848 54.350,41.778 C54.345,41.759 54.333,41.744 54.329,41.725 C54.328,41.719 54.331,41.715 54.330,41.710 C54.316,41.615 54.317,41.520 54.338,41.426 C54.344,41.398 54.359,41.375 54.368,41.348 C54.386,41.296 54.399,41.242 54.428,41.193 L60.023,31.765 L60.156,27.455 C53.987,27.052 49.037,22.123 48.648,15.967 L39.072,15.967 L39.072,68.433 L50.161,68.433 L50.162,68.433 L53.307,68.433 C53.741,68.433 54.093,68.784 54.093,69.217 C54.093,69.650 53.741,70.001 53.307,70.001 L50.162,70.001 L50.161,70.001 L38.286,70.001 L32.713,70.001 L0.787,70.001 C0.353,70.001 0.001,69.650 0.001,69.217 C0.001,68.784 0.353,68.433 0.787,68.433 L31.927,68.433 L31.927,15.967 L22.351,15.967 C21.961,22.123 17.011,27.053 10.842,27.455 L10.976,31.763 L16.572,41.193 C16.601,41.243 16.615,41.297 16.632,41.350 C16.641,41.376 16.656,41.399 16.661,41.425 C16.682,41.519 16.684,41.614 16.670,41.708 C16.669,41.714 16.672,41.719 16.671,41.725 C16.666,41.754 16.649,41.778 16.641,41.806 C16.626,41.859 16.611,41.911 16.585,41.960 C16.565,41.997 16.538,42.027 16.513,42.060 C16.492,42.089 16.477,42.121 16.451,42.147 L10.752,47.831 C10.599,47.984 10.397,48.061 10.196,48.061 C9.995,48.061 9.794,47.984 9.640,47.831 L3.941,42.147 C3.917,42.124 3.905,42.094 3.884,42.068 C3.861,42.038 3.838,42.010 3.819,41.977 C3.784,41.915 3.761,41.849 3.744,41.781 C3.739,41.761 3.725,41.745 3.722,41.725 C3.721,41.719 3.723,41.714 3.722,41.709 C3.708,41.615 3.710,41.519 3.731,41.425 C3.737,41.399 3.751,41.377 3.759,41.352 C3.777,41.298 3.791,41.243 3.821,41.193 L9.403,31.786 L9.269,27.455 C4.094,27.064 0.001,22.749 0.001,17.489 C0.001,12.989 3.671,9.328 8.183,9.328 C11.880,9.328 14.887,12.327 14.887,16.014 C14.887,19.049 12.411,21.519 9.367,21.519 C6.846,21.519 4.794,19.473 4.794,16.958 C4.794,16.525 5.146,16.174 5.580,16.174 C6.014,16.174 6.367,16.525 6.367,16.958 C6.367,18.608 7.712,19.950 9.367,19.950 C11.544,19.950 13.315,18.184 13.315,16.014 C13.315,13.192 11.013,10.896 8.183,10.896 C4.539,10.896 1.573,13.854 1.573,17.489 C1.573,22.141 5.368,25.925 10.032,25.925 C15.972,25.925 20.804,21.107 20.804,15.183 C20.804,14.929 20.933,14.713 21.122,14.570 C18.674,12.980 17.009,10.204 17.009,7.111 C17.009,3.188 20.208,-0.002 24.141,-0.002 C27.373,-0.002 30.003,2.620 30.003,5.844 C30.003,8.511 27.829,10.679 25.156,10.679 C22.931,10.679 21.120,8.874 21.120,6.655 C21.120,4.793 22.640,3.278 24.506,3.278 C24.940,3.278 25.293,3.630 25.293,4.063 C25.293,4.496 24.940,4.847 24.506,4.847 C23.506,4.847 22.693,5.658 22.693,6.655 C22.693,8.009 23.798,9.111 25.156,9.111 C26.961,9.111 28.431,7.646 28.431,5.844 C28.431,3.486 26.506,1.566 24.141,1.566 C21.075,1.566 18.581,4.054 18.581,7.111 C18.581,11.061 21.861,14.399 25.745,14.399 L31.927,14.399 L31.927,12.890 C31.927,10.926 33.530,9.328 35.500,9.328 C37.470,9.328 39.072,10.926 39.072,12.890 L39.072,14.399 L45.199,14.399 C49.112,14.399 52.418,11.061 52.418,7.111 C52.418,4.054 49.924,1.566 46.859,1.566 C44.493,1.566 42.568,3.486 42.568,5.844 C42.568,7.646 44.038,9.111 45.843,9.111 C47.201,9.111 48.307,8.009 48.307,6.655 C48.307,5.658 47.493,4.847 46.493,4.847 C46.058,4.847 45.707,4.496 45.707,4.063 C45.707,3.630 46.058,3.278 46.493,3.278 C48.360,3.278 49.878,4.793 49.878,6.655 C49.878,8.874 48.069,10.679 45.843,10.679 C43.170,10.679 40.996,8.511 40.996,5.844 C40.996,2.620 43.626,-0.002 46.859,-0.002 C50.790,-0.002 53.991,3.188 53.991,7.111 C53.991,10.198 52.321,12.971 49.865,14.561 C50.061,14.704 50.196,14.923 50.196,15.183 C50.196,21.107 55.027,25.925 60.967,25.925 C65.632,25.925 69.427,22.141 69.427,17.489 C69.427,13.854 66.461,10.896 62.815,10.896 C59.987,10.896 57.685,13.192 57.685,16.014 C57.685,18.184 59.456,19.950 61.633,19.950 C63.288,19.950 64.634,18.608 64.634,16.958 C64.634,16.525 64.985,16.174 65.420,16.174 C65.854,16.174 66.206,16.525 66.206,16.958 C66.206,19.473 64.154,21.519 61.633,21.519 C58.588,21.519 56.112,19.049 56.112,16.014 C56.112,12.327 59.119,9.328 62.815,9.328 C67.328,9.328 70.999,12.989 70.999,17.489 C70.999,22.749 66.906,27.064 61.731,27.455 ZM10.196,46.168 L14.264,42.110 L10.196,41.418 L6.128,42.110 L10.196,46.168 ZM6.038,40.534 L10.064,39.849 C10.151,39.835 10.241,39.835 10.329,39.849 L14.354,40.534 L10.196,33.528 L6.038,40.534 ZM37.500,12.890 C37.500,11.791 36.602,10.896 35.500,10.896 C34.397,10.896 33.500,11.791 33.500,12.890 L33.500,14.237 L37.500,14.237 L37.500,12.890 ZM37.500,15.967 L33.500,15.967 L33.500,68.433 L37.500,68.433 L37.500,15.967 ZM60.804,46.168 L64.871,42.110 L60.804,41.418 L56.736,42.110 L60.804,46.168 ZM60.804,33.528 L56.646,40.534 L60.671,39.849 C60.759,39.835 60.848,39.835 60.936,39.849 L64.961,40.534 L60.804,33.528 ZM57.893,68.433 L62.480,68.433 C62.915,68.433 63.266,68.784 63.266,69.217 C63.266,69.650 62.915,70.001 62.480,70.001 L57.893,70.001 C57.459,70.001 57.107,69.650 57.107,69.217 C57.107,68.784 57.459,68.433 57.893,68.433 ZM67.067,68.433 L70.212,68.433 C70.647,68.433 70.999,68.784 70.999,69.217 C70.999,69.650 70.647,70.001 70.212,70.001 L67.067,70.001 C66.632,70.001 66.281,69.650 66.281,69.217 C66.281,68.784 66.632,68.433 67.067,68.433 Z" class="cls-1"/>
</svg>

